<?xml version="1.0" ?><svg id="Layer_1" style="enable-background:new 0 0 720 226;" version="1.1" viewBox="0 0 720 226" xml:space="preserve" xmlns="http://www.w3.org/2000/svg" xmlns:xlink="http://www.w3.org/1999/xlink"><style type="text/css">
	.st0{fill:#191919;}
	.st1{fill:#F29221;}
	.st2{fill:#FFFFFF;}
	.st3{fill:#B14C26;}
</style><path class="st0" d="M413.1,182.5c7-1.6,12.2-5.9,15.6-13c1.7-3.7,3-8.9,3.9-15.5c0.9-6.6,1.3-12.3,1.3-16.9v-6.3h-33  c0,2.6,0,5.1,0,7.6c0,2.5,0,4.9,0,7.4c0,3.3-0.3,6.7-1,10.2c-0.7,3.5-3.2,5.2-7.5,5.2c-4.4,0-7-1.7-7.6-5.2  c-0.6-3.5-0.9-6.8-0.9-10.2c0-10.7-0.1-21.5-0.3-32.4c-0.2-10.9-0.1-21.7,0.3-32.6c0.1-8,3-12,8.5-12c5.4,0,8.3,4,8.5,12  c0,2.3,0,4.7,0.1,7.1c0.1,2.4,0.1,4.7,0.1,6.9h32.6c-0.4-4.8-0.9-10.2-1.5-16.1c-0.6-5.9-1.5-10.6-2.6-13.9c-3-8.4-8-13.9-15-16.3  c-7-2.5-14.4-3.7-22.2-3.7c-7.9,0-15.3,1.2-22.3,3.7c-7,2.5-11.9,7.9-14.9,16.3c-1.5,4.1-2.7,9.3-3.6,15.7c-0.9,6.4-1.4,13-1.4,19.6  v32.2c0,7,0.5,14,1.6,21c1,7,2.5,12.3,4.4,16c3.3,7,8.5,11.4,15.5,13c7,1.6,13.9,2.4,20.8,2.4C399.2,184.9,406.1,184.1,413.1,182.5z  "/><path class="st0" d="M477.2,129.9l7.8-61.6h0.4l7.8,61.6H477.2z M496.2,154.7l3.7,28.5h33.1L509.4,46.7h-48.5l-23.7,136.4h33.1  l3.7-28.5H496.2z"/><path class="st0" d="M540.5,183.2h32.6v-50.9h5.7c5.3,0,8.8,1.1,10.6,3.3c1.6,2.3,2.4,5.6,2.4,9.6v37.9h33.3v-31.7  c0-8.4-1.8-15.4-5.4-21.1c-3.8-5.4-9.3-9-16.3-10.7v-0.4c6.9-1.2,12.1-4,15.6-8.3c3-3.6,4.6-7.7,5-12.4c0.4-4.7,0.6-9.3,0.6-13.7  c0-5.8-0.4-11.5-1.1-17.1c-0.7-5.6-3.5-10.3-8.3-14c-4.6-3.3-10-5.3-16.3-6c-6.3-0.7-12.1-1-17.4-1h-40.9L540.5,183.2L540.5,183.2z   M573.1,71h7.8c4.2,0,7.2,1,8.9,3c1.5,1.8,2.2,4.8,2.2,8.9c0,2,0,3.9,0,5.7c0,1.9,0,3.5,0,5c-0.3,3.5-0.7,6.2-1.4,8.1  c-0.7,2.2-2,3.9-3.7,5c-1.6,1.2-4.1,1.9-7.6,1.9h-6.3L573.1,71L573.1,71z"/><path class="st0" d="M631.8,73.2H654v110h32.8v-110H709V46.7h-77.2L631.8,73.2L631.8,73.2z"/><path class="st1" d="M299.7,96.5h-0.4l-10.7-49.8h-33.5l20.2,65l-22,71.5h34.4l11.3-53.5h0.4l11.7,53.5h34.4l-22-71.3l20.4-65.2  h-33.5L299.7,96.5z"/><path class="st1" d="M38.7,8.1h156.7c15.7,0,28.5,12.7,28.5,28.5v156.7c0,15.7-12.7,28.5-28.5,28.5H38.7  c-15.7,0-28.5-12.7-28.5-28.5V36.6C10.3,20.8,23,8.1,38.7,8.1z"/><path class="st2" d="M173.6,111.9c-3.2,3.2-9.5,9.5-14.6,14.7c5.1,5.1,11.4,11.4,14.6,14.6c1.3,1.3,2.1,3.1,2.1,4.9  c0,7.8,0,18.2,0,25.8c0,2.9-0.6,3.3-3.5,3.3c-10,0-10.1,0-12.2,0c0-5,0-12.4,0-19.6c0-2.5-0.4-3.7-2.1-5.4  c-2.8-2.8-10.5-10.6-13.3-13.5c-1.5-1.6-3.8-2.2-5.7-2.2c-9.7,0-36.7,0-43.3,0c-1.9,0-4.2,0.7-5.7,2.2c-2.8,2.9-10.6,10.7-13.3,13.5  c-1.7,1.7-2.1,2.9-2.1,5.4c0,6.3,0,10.7,0,16c0,2.8-0.8,3.6-3.7,3.6c-1.6,0-2.1,0-12.2,0c0-6,0-19.7,0-29.1c0-1.8,0.9-3.7,2.1-4.9  c3.2-3.2,9.5-9.5,14.6-14.6c-5.1-5.1-11.4-11.4-14.6-14.6c-1.3-1.3-2.1-3.1-2.1-4.9c0-9.4,0-46.3,0-52.3c14.1,0,13.5,0,15.8,0  c0,5,0,35.6,0,42.8c0,2.5,0.4,3.7,2.1,5.4c2.8,2.8,10.5,10.6,13.3,13.5c1.5,1.6,3.8,2.2,5.7,2.2c9.6,0,36.4,0,43.3,0  c1.9,0,4.2-0.7,5.7-2.2c2.8-2.9,10.6-10.7,13.3-13.5c1.7-1.7,2.1-2.9,2.1-5.4c0-7.2,0-37.8,0-42.8c2.4,0,1.7,0,15.8,0  c0,6,0,42.8,0,52.3C175.7,108.8,174.8,110.7,173.6,111.9z"/><path class="st2" d="M90.8,84.5h11.7v11.7H90.8V84.5z"/><path class="st2" d="M134.1,84.5h11.7v11.7h-11.7V84.5z"/><path class="st2" d="M90.8,63h11.7v11.7H90.8V63z"/><path class="st2" d="M134.1,63h11.7v11.7h-11.7V63z"/><path class="st2" d="M112.5,84.6h11.7v11.7h-11.7V84.6z"/><path class="st2" d="M112.5,63h11.7v11.7h-11.7V63z"/><path class="st3" d="M75.1,186.9c-5.2,0-9.5-3.6-10.6-8.4h8.6c2.4,0,4.4-2,4.4-4.4v-8.7c4.8,1.1,8.5,5.4,8.5,10.6  C86,182,81.1,186.9,75.1,186.9z"/><path class="st3" d="M176.6,186.9c-5.1,0-9.4-3.6-10.6-8.3h8.6c2.4,0,4.4-2,4.4-4.4v-8.8c4.8,1.1,8.5,5.4,8.5,10.6  C187.5,182,182.6,186.9,176.6,186.9z"/></svg>